name analog
datacolumns 19
datarows 23
range 0.232 0.243
endheader
time	ground_force_vx	ground_force_vy	ground_force_vz	ground_force_px	ground_force_py	ground_force_pz	l_ground_force_vx	l_ground_force_vy	l_ground_force_vz	l_ground_force_px	l_ground_force_py	l_ground_force_pz	ground_torque_x	ground_torque_y	ground_torque_z	l_ground_torque_x	l_ground_torque_y	l_ground_torque_z
0.232	-0.0	-0.0	-0.0	0.443765789270401	44.0464096069336	-399.1114196777344	0.366394430398941	-40.54425811767578	-368.3731689453125	-0.0	-0.0	-0.0	-0.0	-0.0	-0.0	92092.6328125	-10883.75390625	-4401.087890625
0.2325	-0.0	-0.0	-0.0	-0.0734670683741569	44.046146392822266	-400.07275390625	0.8848350644111633	-40.27695083618164	-369.7784118652344	-0.0	-0.0	-0.0	-0.0	-0.0	-0.0	92273.4609375	-11084.388671875	-4374.0146484375
0.233	-0.0	-0.0	-0.0	0.2875338196754455	43.68052673339844	-399.0670471191406	0.8982842564582825	-40.36079025268555	-369.41119384765625	-0.0	-0.0	-0.0	-0.0	-0.0	-0.0	92536.9140625	-11194.2197265625	-4431.04931640625
0.2335	-0.0	-0.0	-0.0	0.2741910815238952	43.6629753112793	-398.73150634765625	1.3262406587600708	-40.186370849609375	-369.3937072753906	-0.0	-0.0	-0.0	-0.0	-0.0	-0.0	92471.171875	-11525.4560546875	-4310.55029296875
0.234	-0.0	-0.0	-0.0	0.458945482969284	43.67604446411133	-398.7316589355469	1.2441240549087524	-39.91707611083984	-368.346435546875	-0.0	-0.0	-0.0	-0.0	-0.0	-0.0	92579.3984375	-11527.412109375	-4165.85302734375
0.23450000000000001	-0.0	-0.0	-0.0	0.2718537747859955	44.01354598999024	-399.0849609375	1.6117433309555054	-40.09379196166992	-369.7347717285156	-0.0	-0.0	-0.0	-0.0	-0.0	-0.0	92659.40625	-11740.8701171875	-4311.03759765625
0.23500000000000001	-0.0	-0.0	-0.0	0.0	43.77546310424805	-400.5142517089844	1.8650248050689695	-39.65435028076172	-368.038818359375	-0.0	-0.0	-0.0	-0.0	-0.0	-0.0	92960.8671875	-11894.9580078125	-4396.21728515625
0.23550000000000001	-0.0	-0.0	-0.0	-0.1743303686380386	43.85215759277344	-401.6222839355469	2.219839811325073	-39.73857498168945	-370.1007080078125	-0.0	-0.0	-0.0	-0.0	-0.0	-0.0	92902.546875	-11877.6396484375	-4103.53662109375
0.23600000000000002	-0.0	-0.0	-0.0	-0.0892105102539062	43.77506637573242	-402.633056640625	2.223867654800415	-39.13460540771485	-369.767578125	-0.0	-0.0	-0.0	-0.0	-0.0	-0.0	93200.546875	-11999.2763671875	-4251.67578125
0.23650000000000002	-0.0	-0.0	-0.0	-0.1823608726263046	43.67586517333984	-403.0407104492188	2.742053508758545	-38.78712844848633	-371.4423522949219	-0.0	-0.0	-0.0	-0.0	-0.0	-0.0	92927.359375	-11975.4306640625	-4162.20166015625
0.23700000000000002	-0.0	-0.0	-0.0	-0.5236123204231262	44.0323600769043	-401.9495239257813	2.574579954147339	-39.21482849121094	-370.1161804199219	-0.0	-0.0	-0.0	-0.0	-0.0	-0.0	93202.3125	-12209.90234375	-4133.40478515625
0.23750000000000002	-0.0	-0.0	-0.0	-0.706067681312561	43.58857345581055	-404.0529174804688	2.9255261421203613	-39.55850982666016	-370.76861572265625	-0.0	-0.0	-0.0	-0.0	-0.0	-0.0	93417.0	-12139.8017578125	-4075.812255859375
0.23800000000000002	-0.0	-0.0	-0.0	-1.1541374921798706	43.764896392822266	-403.6846923828125	2.670784711837769	-39.38016891479492	-369.4172973632813	-0.0	-0.0	-0.0	-0.0	-0.0	-0.0	93345.90625	-12326.16796875	-4128.2412109375
0.23850000000000002	-0.0	-0.0	-0.0	-0.5462929606437683	43.84848403930664	-404.4274291992188	2.925591468811035	-39.11722946166992	-370.0933837890625	-0.0	-0.0	-0.0	-0.0	-0.0	-0.0	93267.21875	-12539.66796875	-4217.65478515625
0.23900000000000002	-0.0	-0.0	-0.0	-0.979515016078949	43.9286994934082	-403.3599853515625	3.104877471923828	-38.773223876953125	-368.35498046875	-0.0	-0.0	-0.0	-0.0	-0.0	-0.0	93496.0390625	-12759.3388671875	-4130.3310546875
0.23950000000000002	-0.0	-0.0	-0.0	-0.71368408203125	43.39770126342773	-403.0271911621094	3.193588256835937	-38.773223876953125	-371.1270751953125	-0.0	-0.0	-0.0	-0.0	-0.0	-0.0	93181.53125	-12474.7255859375	-3981.36181640625
0.24	-0.0	-0.0	-0.0	-0.447790652513504	43.3978271484375	-403.65716552734375	3.3639512062072754	-38.7626838684082	-370.4290466308594	-0.0	-0.0	-0.0	-0.0	-0.0	-0.0	93111.8046875	-12637.6044921875	-4070.24658203125
0.2405	-0.0	-0.0	-0.0	-0.2693319320678711	43.31058120727539	-401.9053039550781	3.2788445949554443	-38.764625549316406	-368.7041015625	-0.0	-0.0	-0.0	-0.0	-0.0	-0.0	93175.4765625	-12635.87890625	-4160.47998046875
0.241	-0.0	-0.0	-0.0	-0.6161600947380066	42.78591537475586	-402.265380859375	3.3608717918396	-38.4216194152832	-368.7041015625	-0.0	-0.0	-0.0	-0.0	-0.0	-0.0	92962.3046875	-12523.9375	-4100.44140625
0.2415	-0.0	-0.0	-0.0	-0.1833247244358062	43.03365707397461	-402.9653930664063	3.278975486755371	-38.16158676147461	-369.7319641113281	-0.0	-0.0	-0.0	-0.0	-0.0	-0.0	92949.8984375	-12809.166015625	-4070.223388671875
0.242	-0.0	-0.0	-0.0	-0.9701375365257264	42.51839447021485	-402.5998229980469	3.1919639110565186	-38.59334564208984	-368.7104797363281	-0.0	-0.0	-0.0	-0.0	-0.0	-0.0	93100.21875	-12990.9833984375	-4041.298828125
0.2425	-0.0	-0.0	-0.0	-0.613559365272522	41.88505935668945	-400.5184020996094	3.372596502304077	-38.06507110595703	-368.7603149414063	-0.0	-0.0	-0.0	-0.0	-0.0	-0.0	93469.5859375	-13042.3251953125	-4012.446044921875
0.243	-0.0	-0.0	-0.0	0.0136946942657232	42.24020767211914	-401.5897216796875	3.545332431793213	-37.98141098022461	-370.45599365234375	-0.0	-0.0	-0.0	-0.0	-0.0	-0.0	93990.8671875	-13034.349609375	-4100.24560546875
